<?xml version="1.0" encoding="UTF-8"?>
<!DOCTYPE svg PUBLIC "-//W3C//DTD SVG 1.1//EN" "http://www.w3.org/Graphics/SVG/1.1/DTD/svg11.dtd">
<!-- Creator: CorelDRAW X5 -->
<svg xmlns="http://www.w3.org/2000/svg" xml:space="preserve" width="75.741mm" height="25.302mm" style="shape-rendering:geometricPrecision; text-rendering:geometricPrecision; image-rendering:optimizeQuality; fill-rule:evenodd; clip-rule:evenodd"
viewBox="0 0 7573 2530"
 xmlns:xlink="http://www.w3.org/1999/xlink">
 <defs>
  <style type="text/css">
   <![CDATA[
    .fil0 {fill:white}
    .fil3 {fill:black;fill-rule:nonzero}
    .fil1 {fill:#32A041;fill-rule:nonzero}
    .fil2 {fill:#C8191E;fill-rule:nonzero}
   ]]>
  </style>
 </defs>
 <g id="Camada_x0020_1">
  <metadata id="CorelCorpID_0Corel-Layer"/>
  <g id="_526895592">
   <path class="fil0" d="M37 0l7499 0c20,0 37,17 37,37l0 2456c0,20 -17,37 -37,37l-7499 0c-20,0 -37,-17 -37,-37l0 -2456c0,-20 17,-37 37,-37z"/>
   <g>
    <g>
     <path class="fil1" d="M1692 1650c0,21 -17,37 -37,37l-307 0c-21,0 -37,-17 -37,-37l0 -307c0,-21 17,-37 37,-37l307 0c20,0 37,17 37,37l0 307z"/>
     <path class="fil1" d="M1234 734c0,21 -17,37 -37,37l-307 0c-21,0 -37,-17 -37,-37l0 -307c0,-21 17,-37 37,-37l307 0c21,0 37,17 37,37l0 307z"/>
     <path class="fil1" d="M1692 734c0,21 -17,37 -37,37l-307 0c-21,0 -37,-17 -37,-37l0 -307c0,-21 17,-37 37,-37l307 0c20,0 37,17 37,37l0 307z"/>
     <path class="fil1" d="M776 1192c0,21 -17,37 -37,37l-308 0c-21,0 -37,-17 -37,-37l0 -307c0,-21 17,-37 37,-37l308 0c20,0 37,17 37,37l0 307z"/>
     <path class="fil1" d="M1234 1192c0,21 -17,37 -37,37l-307 0c-21,0 -37,-17 -37,-37l0 -307c0,-21 17,-37 37,-37l307 0c21,0 37,17 37,37l0 307z"/>
     <path class="fil1" d="M776 1650c0,21 -17,37 -37,37l-308 0c-21,0 -37,-17 -37,-37l0 -307c0,-21 17,-37 37,-37l308 0c20,0 37,17 37,37l0 307z"/>
     <path class="fil1" d="M1234 1650c0,21 -17,37 -37,37l-307 0c-21,0 -37,-17 -37,-37l0 -307c0,-21 17,-37 37,-37l307 0c21,0 37,17 37,37l0 307z"/>
     <path class="fil1" d="M776 2109c0,21 -17,37 -37,37l-308 0c-21,0 -37,-17 -37,-37l0 -307c0,-21 17,-37 37,-37l308 0c20,0 37,17 37,37l0 307z"/>
     <path class="fil1" d="M1234 2109c0,21 -17,37 -37,37l-307 0c-21,0 -37,-17 -37,-37l0 -307c0,-21 17,-37 37,-37l307 0c21,0 37,17 37,37l0 307z"/>
     <path class="fil2" d="M795 580c0,116 -94,210 -210,210 -116,0 -210,-94 -210,-210 0,-116 94,-210 210,-210 116,0 210,94 210,210z"/>
    </g>
    <g>
     <polygon class="fil3" points="1959,763 1959,383 2040,383 2040,763 "/>
     <path class="fil3" d="M2474 763l-103 0 -166 -287 -2 0c3,51 5,87 5,109l0 179 -72 0 0 -380 102 0 165 284 2 0c-3,-49 -4,-84 -4,-105l0 -180 73 0 0 380zm321 -105c0,34 -12,61 -37,81 -25,20 -59,30 -103,30 -41,0 -76,-8 -108,-23l0 -75c26,11 47,20 65,24 18,5 34,7 49,7 18,0 31,-3 41,-10 10,-7 14,-17 14,-30 0,-7 -2,-14 -6,-20 -4,-6 -10,-11 -18,-17 -8,-5 -25,-14 -49,-26 -23,-11 -41,-21 -52,-31 -12,-10 -21,-22 -28,-35 -7,-13 -10,-29 -10,-47 0,-34 11,-60 34,-79 23,-19 54,-29 95,-29 20,0 39,2 57,7 18,5 37,11 56,20l-26 63c-20,-8 -37,-14 -50,-17 -13,-3 -26,-5 -39,-5 -15,0 -27,4 -35,11 -8,7 -12,16 -12,28 0,7 2,13 5,19 3,5 9,10 16,15 7,5 24,14 51,27 36,17 60,34 73,51 13,17 20,38 20,63z"/>
     <path class="fil3" d="M3011 763l-81 0 0 -313 -103 0 0 -67 287 0 0 67 -103 0 0 313zm162 0l0 -380 81 0 0 380 -81 0zm324 0l-81 0 0 -313 -103 0 0 -67 287 0 0 67 -103 0 0 313z"/>
     <path class="fil3" d="M3967 383l0 246c0,28 -6,53 -19,74 -13,21 -31,37 -55,49 -24,11 -52,17 -84,17 -49,0 -87,-13 -114,-38 -27,-25 -41,-59 -41,-103l0 -245 80 0 0 233c0,29 6,51 18,64 12,14 31,21 59,21 26,0 46,-7 57,-21 12,-14 18,-35 18,-65l0 -232 80 0z"/>
     <polygon class="fil3" points="4211,763 4130,763 4130,450 4027,450 4027,383 4315,383 4315,450 4211,450 "/>
     <path class="fil3" d="M4719 573c0,63 -16,111 -47,145 -31,34 -76,51 -134,51 -58,0 -103,-17 -134,-51 -31,-34 -47,-82 -47,-145 0,-63 16,-112 47,-145 31,-33 76,-50 135,-50 58,0 103,17 134,50 31,34 46,82 46,145zm-278 0c0,42 8,74 24,96 16,21 40,32 72,32 64,0 97,-43 97,-128 0,-86 -32,-128 -96,-128 -32,0 -56,11 -73,32 -16,22 -24,54 -24,96zm574 190l-79 0 0 -380 218 0 0 66 -139 0 0 98 129 0 0 66 -129 0 0 150z"/>
     <path class="fil3" d="M5450 763l-219 0 0 -380 219 0 0 66 -138 0 0 83 129 0 0 66 -129 0 0 98 138 0 0 67zm396 -194c0,63 -18,110 -53,144 -36,33 -87,50 -154,50l-108 0 0 -380 119 0c62,0 110,16 145,49 34,33 52,78 52,137zm-84 2c0,-82 -36,-122 -108,-122l-43 0 0 247 35 0c78,0 117,-42 117,-125zm382 191l-219 0 0 -380 219 0 0 66 -138 0 0 83 129 0 0 66 -129 0 0 98 138 0 0 67zm161 -211l26 0c25,0 44,-4 56,-13 12,-9 18,-22 18,-40 0,-18 -6,-31 -19,-38 -12,-8 -32,-11 -58,-11l-25 0 0 103zm0 65l0 146 -81 0 0 -380 111 0c52,0 90,9 115,28 25,19 37,47 37,86 0,22 -6,42 -18,60 -12,17 -30,31 -52,41 57,85 95,141 112,165l-90 0 -91 -146 -43 0z"/>
     <path class="fil3" d="M6806 763l-28 -90 -139 0 -28 90 -87 0 134 -381 99 0 135 381 -87 0zm-47 -158c-25,-82 -40,-128 -43,-139 -3,-11 -6,-19 -7,-25 -6,22 -22,77 -49,164l99 0z"/>
     <polygon class="fil3" points="6946,763 6946,383 7027,383 7027,697 7181,697 7181,763 "/>
     <path class="fil3" d="M2088 1233l-98 -254 -2 0c2,20 3,44 3,72l0 183 -31 0 0 -287 50 0 91 237 2 0 92 -237 50 0 0 287 -33 0 0 -185c0,-21 1,-44 3,-69l-2 0 -98 254 -27 0zm364 0l-6 -31 -2 0c-11,13 -21,23 -32,27 -11,5 -24,7 -40,7 -21,0 -38,-5 -50,-17 -12,-11 -18,-27 -18,-47 0,-43 35,-66 104,-68l37 -1 0 -13c0,-17 -4,-29 -11,-37 -7,-8 -19,-12 -35,-12 -18,0 -38,5 -61,16l-10 -25c11,-6 22,-10 35,-14 13,-3 25,-5 38,-5 26,0 45,6 57,17 12,11 19,30 19,55l0 147 -24 0zm-74 -23c20,0 36,-6 48,-17 12,-11 17,-27 17,-47l0 -19 -33 1c-26,1 -45,5 -56,12 -11,7 -17,18 -17,33 0,12 4,21 11,27 7,6 17,9 30,9zm235 0c6,0 11,0 17,-1 5,-1 10,-2 13,-3l0 25c-4,2 -9,3 -16,4 -7,1 -13,2 -19,2 -42,0 -62,-22 -62,-66l0 -128 -31 0 0 -16 31 -14 14 -46 19 0 0 50 63 0 0 25 -63 0 0 127c0,13 3,23 9,30 6,7 15,10 25,10zm259 -85c0,35 -9,62 -27,82 -18,20 -42,30 -73,30 -19,0 -36,-5 -51,-14 -15,-9 -26,-22 -35,-39 -8,-17 -12,-37 -12,-59 0,-35 9,-62 26,-82 18,-20 42,-29 73,-29 30,0 54,10 72,30 18,20 27,47 27,81zm-164 0c0,27 6,48 17,63 11,14 27,22 49,22 21,0 38,-7 49,-21 11,-14 17,-35 17,-63 0,-27 -5,-48 -17,-62 -11,-14 -27,-21 -49,-21 -21,0 -38,7 -48,21 -11,14 -16,35 -16,63zm457 -43l98 0 0 140c-15,5 -31,9 -46,11 -16,2 -34,4 -55,4 -44,0 -77,-13 -102,-39 -24,-26 -36,-62 -36,-109 0,-30 6,-56 18,-78 12,-22 29,-40 52,-51 23,-12 49,-18 79,-18 31,0 59,6 86,17l-13 29c-26,-11 -51,-16 -75,-16 -35,0 -62,10 -82,31 -20,21 -29,50 -29,87 0,39 9,68 28,88 19,20 47,30 84,30 20,0 39,-2 58,-7l0 -88 -64 0 0 -30zm260 -69c10,0 18,1 26,2l-4 30c-9,-2 -17,-3 -24,-3 -17,0 -32,7 -45,21 -12,14 -19,32 -19,53l0 115 -33 0 0 -215 27 0 4 40 2 0c8,-14 18,-25 29,-32 11,-8 24,-11 37,-11zm244 111c0,35 -9,62 -27,82 -18,20 -42,30 -73,30 -19,0 -36,-5 -51,-14 -15,-9 -26,-22 -35,-39 -8,-17 -12,-37 -12,-59 0,-35 9,-62 26,-82 18,-20 42,-29 73,-29 30,0 54,10 72,30 18,20 27,47 27,81zm-164 0c0,27 6,48 17,63 11,14 27,22 49,22 21,0 38,-7 49,-21 11,-14 17,-35 17,-63 0,-27 -5,-48 -17,-62 -11,-14 -27,-21 -49,-21 -21,0 -38,7 -48,21 -11,14 -16,35 -16,63zm360 49c0,20 -7,35 -22,46 -15,11 -36,16 -63,16 -29,0 -51,-5 -67,-14l0 -30c10,5 21,9 33,12 12,3 23,4 34,4 17,0 30,-3 39,-8 9,-5 14,-14 14,-25 0,-8 -4,-16 -11,-22 -7,-6 -21,-13 -43,-21 -20,-7 -34,-14 -43,-19 -8,-6 -15,-12 -19,-19 -4,-7 -6,-15 -6,-25 0,-18 7,-31 21,-41 14,-10 34,-15 59,-15 23,0 46,5 68,14l-12 27c-22,-9 -41,-13 -59,-13 -16,0 -27,2 -35,7 -8,5 -12,12 -12,20 0,6 1,11 4,15 3,4 8,8 14,12 7,4 19,9 38,16 26,9 43,19 52,28 9,9 13,21 13,36zm192 0c0,20 -7,35 -22,46 -15,11 -36,16 -63,16 -29,0 -51,-5 -67,-14l0 -30c10,5 21,9 33,12 12,3 23,4 34,4 17,0 30,-3 39,-8 9,-5 14,-14 14,-25 0,-8 -4,-16 -11,-22 -7,-6 -21,-13 -43,-21 -20,-7 -34,-14 -43,-19 -8,-6 -15,-12 -19,-19 -4,-7 -6,-15 -6,-25 0,-18 7,-31 21,-41 14,-10 34,-15 59,-15 23,0 46,5 68,14l-12 27c-22,-9 -41,-13 -59,-13 -16,0 -27,2 -35,7 -8,5 -12,12 -12,20 0,6 1,11 4,15 3,4 8,8 14,12 7,4 19,9 38,16 26,9 43,19 52,28 9,9 13,21 13,36zm239 -49c0,35 -9,62 -27,82 -18,20 -42,30 -73,30 -19,0 -36,-5 -51,-14 -15,-9 -26,-22 -35,-39 -8,-17 -12,-37 -12,-59 0,-35 9,-62 26,-82 18,-20 42,-29 73,-29 30,0 54,10 72,30 18,20 27,47 27,81zm-164 0c0,27 6,48 17,63 11,14 27,22 49,22 21,0 38,-7 49,-21 11,-14 17,-35 17,-63 0,-27 -5,-48 -17,-62 -11,-14 -27,-21 -49,-21 -21,0 -38,7 -48,21 -11,14 -16,35 -16,63z"/>
     <path class="fil3" d="M2084 1429c-32,0 -57,10 -75,31 -18,21 -27,50 -27,86 0,38 9,67 26,87 18,20 43,31 75,31 20,0 43,-4 69,-11l0 29c-20,7 -45,11 -74,11 -42,0 -75,-13 -98,-39 -23,-26 -34,-62 -34,-109 0,-30 6,-56 17,-78 11,-22 27,-39 48,-51 21,-12 46,-18 74,-18 30,0 57,5 79,16l-14 29c-22,-10 -44,-15 -65,-15zm259 261l-6 -31 -2 0c-11,13 -21,23 -32,27 -11,5 -24,7 -40,7 -21,0 -38,-5 -50,-17 -12,-11 -18,-27 -18,-47 0,-43 35,-66 104,-68l37 -1 0 -13c0,-17 -4,-29 -11,-37 -7,-8 -19,-12 -35,-12 -18,0 -38,5 -61,16l-10 -25c11,-6 22,-10 35,-14 13,-3 25,-5 38,-5 26,0 45,6 57,17 12,11 19,30 19,55l0 147 -24 0zm-74 -23c20,0 36,-6 48,-17 12,-11 17,-27 17,-47l0 -19 -33 1c-26,1 -45,5 -56,12 -11,7 -17,18 -17,33 0,12 4,21 11,27 7,6 17,9 30,9zm440 23l0 -140c0,-17 -4,-30 -11,-39 -7,-9 -19,-13 -34,-13 -20,0 -35,6 -45,17 -10,12 -15,30 -15,54l0 120 -33 0 0 -140c0,-17 -4,-30 -11,-39 -7,-9 -19,-13 -34,-13 -20,0 -35,6 -45,18 -9,12 -14,32 -14,60l0 113 -33 0 0 -215 27 0 5 29 2 0c6,-11 15,-19 26,-25 11,-6 24,-9 38,-9 34,0 56,12 66,37l2 0c6,-11 16,-20 28,-27 12,-7 26,-10 42,-10 24,0 43,6 55,19 12,13 18,32 18,60l0 140 -33 0zm200 4c-14,0 -27,-3 -38,-8 -12,-5 -21,-13 -29,-24l-2 0c2,13 2,24 2,36l0 89 -33 0 0 -312 27 0 5 29 2 0c8,-12 18,-20 29,-26 11,-5 24,-8 38,-8 29,0 51,10 66,29 16,19 23,47 23,82 0,35 -8,63 -24,82 -16,20 -38,29 -66,29zm-5 -195c-22,0 -38,6 -48,18 -10,12 -15,32 -15,58l0 7c0,30 5,52 15,65 10,13 26,19 49,19 19,0 33,-7 44,-23 11,-15 16,-36 16,-62 0,-27 -5,-47 -16,-62 -11,-14 -25,-21 -45,-21zm182 -24l0 140c0,18 4,31 12,39 8,9 21,13 38,13 23,0 39,-6 49,-18 10,-12 16,-32 16,-60l0 -113 33 0 0 215 -27 0 -5 -29 -2 0c-7,11 -16,19 -28,24 -12,6 -25,8 -41,8 -26,0 -46,-6 -59,-19 -13,-12 -20,-32 -20,-60l0 -141 33 0zm356 156c0,20 -7,35 -22,46 -15,11 -36,16 -63,16 -29,0 -51,-5 -67,-14l0 -30c10,5 21,9 33,12 12,3 23,4 34,4 17,0 30,-3 39,-8 9,-5 14,-14 14,-25 0,-8 -4,-16 -11,-22 -7,-6 -21,-13 -43,-21 -20,-7 -34,-14 -43,-19 -8,-6 -15,-12 -19,-19 -4,-7 -6,-15 -6,-25 0,-18 7,-31 21,-41 14,-10 34,-15 59,-15 23,0 46,5 68,14l-12 27c-22,-9 -41,-13 -59,-13 -16,0 -27,2 -35,7 -8,5 -12,12 -12,20 0,6 1,11 4,15 3,4 8,8 14,12 7,4 19,9 38,16 26,9 43,19 52,28 9,9 13,21 13,36zm286 -203c-32,0 -57,10 -75,31 -18,21 -27,50 -27,86 0,38 9,67 26,87 18,20 43,31 75,31 20,0 43,-4 69,-11l0 29c-20,7 -45,11 -74,11 -42,0 -75,-13 -98,-39 -23,-26 -34,-62 -34,-109 0,-30 6,-56 17,-78 11,-22 27,-39 48,-51 21,-12 46,-18 74,-18 30,0 57,5 79,16l-14 29c-22,-10 -44,-15 -65,-15zm157 46l0 140c0,18 4,31 12,39 8,9 21,13 38,13 23,0 39,-6 49,-18 10,-12 16,-32 16,-60l0 -113 33 0 0 215 -27 0 -5 -29 -2 0c-7,11 -16,19 -28,24 -12,6 -25,8 -41,8 -26,0 -46,-6 -59,-19 -13,-12 -20,-32 -20,-60l0 -141 33 0zm249 215l-33 0 0 -215 33 0 0 215zm-35 -273c0,-7 2,-13 5,-16 4,-3 8,-5 14,-5 5,0 10,2 14,5 4,4 6,9 6,16 0,7 -2,13 -6,16 -4,4 -8,5 -14,5 -5,0 -10,-2 -14,-5 -4,-4 -5,-9 -5,-16zm237 273l-6 -31 -2 0c-11,13 -21,23 -32,27 -11,5 -24,7 -40,7 -21,0 -38,-5 -50,-17 -12,-11 -18,-27 -18,-47 0,-43 35,-66 104,-68l37 -1 0 -13c0,-17 -4,-29 -11,-37 -7,-8 -19,-12 -35,-12 -18,0 -38,5 -61,16l-10 -25c11,-6 22,-10 35,-14 13,-3 25,-5 38,-5 26,0 45,6 57,17 12,11 19,30 19,55l0 147 -24 0zm-74 -23c20,0 36,-6 48,-17 12,-11 17,-27 17,-47l0 -19 -33 1c-26,1 -45,5 -56,12 -11,7 -17,18 -17,33 0,12 4,21 11,27 7,6 17,9 30,9zm265 -196c28,0 50,10 66,29 16,19 23,47 23,82 0,35 -8,63 -24,82 -16,20 -38,29 -66,29 -14,0 -27,-3 -38,-8 -12,-5 -21,-13 -29,-24l-2 0 -7 28 -23 0 0 -305 33 0 0 74c0,17 -1,32 -2,45l2 0c15,-22 38,-32 68,-32zm-5 27c-22,0 -38,6 -48,19 -10,13 -15,34 -15,65 0,30 5,52 15,65 10,13 26,19 49,19 20,0 35,-7 45,-22 10,-15 15,-36 15,-63 0,-28 -5,-49 -15,-63 -10,-14 -25,-21 -46,-21zm284 191l-6 -31 -2 0c-11,13 -21,23 -32,27 -11,5 -24,7 -40,7 -21,0 -38,-5 -50,-17 -12,-11 -18,-27 -18,-47 0,-43 35,-66 104,-68l37 -1 0 -13c0,-17 -4,-29 -11,-37 -7,-8 -19,-12 -35,-12 -18,0 -38,5 -61,16l-10 -25c11,-6 22,-10 35,-14 13,-3 25,-5 38,-5 26,0 45,6 57,17 12,11 19,30 19,55l0 147 -24 0zm-74 -23c20,0 36,-6 48,-17 12,-11 17,-27 17,-47l0 -19 -33 1c-26,1 -45,5 -56,12 -11,7 -17,18 -17,33 0,12 4,21 11,27 7,6 17,9 30,9zm-8 -226c6,-8 13,-18 20,-29 7,-12 13,-22 17,-30l40 0 0 4c-6,9 -14,19 -26,31 -11,12 -21,22 -30,29l-22 0 0 -5z"/>
     <path class="fil3" d="M2084 1885c-32,0 -57,10 -75,31 -18,21 -27,50 -27,86 0,38 9,67 26,87 18,20 43,31 75,31 20,0 43,-4 69,-11l0 29c-20,7 -44,11 -74,11 -42,0 -75,-13 -98,-39 -23,-26 -34,-62 -34,-109 0,-30 6,-56 17,-78 11,-22 27,-39 48,-51 21,-12 46,-18 74,-18 30,0 57,5 79,16l-14 29c-22,-10 -44,-15 -65,-15zm217 265c-32,0 -57,-10 -75,-29 -18,-19 -28,-46 -28,-81 0,-35 9,-62 26,-83 17,-20 40,-31 69,-31 27,0 48,9 64,27 16,18 24,41 24,70l0 21 -148 0c1,25 7,44 19,58 12,13 29,20 51,20 23,0 46,-5 69,-15l0 29c-12,5 -22,9 -33,11 -10,2 -23,3 -37,3zm-9 -196c-17,0 -31,6 -41,17 -10,11 -16,27 -18,47l113 0c0,-21 -5,-36 -14,-47 -9,-11 -22,-16 -39,-16zm176 192l-33 0 0 -305 33 0 0 305zm65 -21c0,-9 2,-15 6,-20 4,-4 10,-7 17,-7 8,0 14,2 18,7 4,4 6,11 6,20 0,9 -2,15 -6,20 -4,5 -10,7 -18,7 -7,0 -12,-2 -17,-6 -4,-4 -7,-11 -7,-20zm471 -123c0,46 -12,82 -35,108 -23,26 -56,39 -97,39 -42,0 -75,-13 -98,-39 -23,-26 -34,-62 -34,-109 0,-47 12,-83 35,-109 23,-26 56,-39 98,-39 41,0 74,13 97,39 23,26 35,62 35,108zm-229 0c0,39 8,68 25,88 17,20 41,30 72,30 32,0 56,-10 72,-30 16,-20 24,-50 24,-89 0,-39 -8,-68 -24,-88 -16,-20 -40,-30 -72,-30 -32,0 -56,10 -73,30 -17,20 -25,49 -25,88zm374 148c-31,0 -55,-10 -72,-29 -17,-19 -26,-46 -26,-81 0,-36 9,-64 26,-83 17,-20 42,-29 74,-29 10,0 21,1 31,3 10,2 18,5 24,8l-10 28c-7,-3 -15,-5 -24,-7 -9,-2 -16,-3 -23,-3 -44,0 -66,28 -66,84 0,26 5,47 16,61 11,14 27,21 47,21 18,0 36,-4 55,-12l0 29c-14,7 -33,11 -54,11zm175 -27c6,0 11,0 17,-1 5,-1 10,-2 13,-3l0 25c-4,2 -9,3 -16,4 -7,1 -13,2 -19,2 -42,0 -62,-22 -62,-66l0 -128 -31 0 0 -16 31 -14 14 -46 19 0 0 50 63 0 0 25 -63 0 0 127c0,13 3,23 9,30 6,7 15,10 25,10zm205 23l-6 -31 -2 0c-11,13 -21,23 -32,27 -11,5 -24,7 -40,7 -21,0 -38,-5 -50,-17 -12,-11 -18,-27 -18,-47 0,-43 35,-66 104,-68l37 -1 0 -13c0,-17 -4,-29 -11,-37 -7,-8 -19,-12 -35,-12 -18,0 -38,5 -61,16l-10 -25c11,-6 22,-10 35,-14 13,-3 25,-5 38,-5 26,0 45,6 57,17 12,11 19,30 19,55l0 147 -24 0zm-74 -23c20,0 36,-6 48,-17 12,-11 17,-27 17,-47l0 -19 -33 1c-26,1 -45,5 -56,12 -11,7 -17,18 -17,33 0,12 4,21 11,27 7,6 17,9 30,9zm131 -192l35 0 47 123c10,28 17,48 19,61l2 0c2,-7 5,-18 11,-34 5,-16 23,-66 53,-149l35 0 -93 245c-9,24 -20,41 -32,52 -12,10 -27,15 -45,15 -10,0 -20,-1 -29,-3l0 -26c7,2 15,2 24,2 22,0 38,-13 48,-38l12 -31 -87 -216zm384 186l-2 0c-15,22 -38,33 -68,33 -28,0 -50,-10 -66,-29 -16,-19 -23,-47 -23,-82 0,-35 8,-63 24,-83 16,-20 38,-29 66,-29 29,0 52,11 67,32l3 0 -1 -15 -1 -15 0 -88 33 0 0 305 -27 0 -4 -29zm-65 5c22,0 38,-6 48,-18 10,-12 15,-32 15,-59l0 -7c0,-30 -5,-52 -15,-65 -10,-13 -26,-19 -49,-19 -19,0 -34,7 -44,22 -10,15 -15,36 -15,63 0,27 5,48 15,62 10,14 25,21 44,21zm256 27c-32,0 -57,-10 -75,-29 -18,-19 -28,-46 -28,-81 0,-35 9,-62 26,-83 17,-20 40,-31 69,-31 27,0 48,9 64,27 16,18 24,41 24,70l0 21 -148 0c1,25 7,44 19,58 12,13 29,20 51,20 23,0 46,-5 69,-15l0 29c-12,5 -22,9 -33,11 -10,2 -23,3 -37,3zm-9 -196c-17,0 -31,6 -41,17 -10,11 -16,27 -18,47l113 0c0,-21 -5,-36 -14,-47 -9,-11 -22,-16 -39,-16zm211 267c-12,0 -22,-2 -29,-5l0 -28c9,3 19,4 29,4 13,0 23,-4 30,-12 7,-8 10,-19 10,-34l0 -287 33 0 0 284c0,25 -6,44 -19,58 -13,14 -31,21 -54,21zm331 -183c0,35 -9,62 -27,82 -18,20 -42,30 -73,30 -19,0 -36,-5 -51,-14 -15,-9 -26,-22 -35,-39 -8,-17 -12,-37 -12,-59 0,-35 9,-62 26,-82 18,-20 42,-29 73,-29 30,0 54,10 72,30 18,20 27,47 27,81zm-164 0c0,27 5,48 16,63 11,14 27,22 49,22 21,0 38,-7 49,-21 11,-14 17,-35 17,-63 0,-27 -6,-48 -17,-62 -11,-14 -27,-21 -49,-21 -21,0 -38,7 -48,21 -11,14 -16,35 -16,63zm320 -111c10,0 18,1 26,2l-4 30c-9,-2 -17,-3 -24,-3 -17,0 -32,7 -45,21 -12,14 -19,32 -19,53l0 115 -33 0 0 -215 27 0 4 40 2 0c8,-14 18,-25 29,-32 11,-8 24,-11 37,-11zm239 4l0 21 -40 5c4,5 7,11 10,18 3,7 4,16 4,25 0,21 -7,38 -22,50 -14,13 -34,19 -59,19 -6,0 -12,-1 -18,-2 -14,7 -21,17 -21,28 0,6 2,10 7,13 5,3 13,4 25,4l38 0c23,0 41,5 54,15 12,10 19,24 19,43 0,24 -10,42 -29,54 -19,12 -47,19 -84,19 -28,0 -50,-5 -65,-16 -15,-10 -23,-25 -23,-44 0,-13 4,-24 13,-34 8,-10 20,-16 35,-19 -5,-2 -10,-6 -14,-12 -4,-5 -6,-11 -6,-18 0,-8 2,-15 6,-21 4,-6 11,-12 20,-17 -11,-5 -20,-12 -27,-23 -7,-11 -11,-24 -11,-38 0,-24 7,-42 21,-54 14,-13 34,-19 60,-19 11,0 21,1 30,4l75 0zm-172 251c0,12 5,20 15,27 10,6 24,9 42,9 27,0 48,-4 61,-12 13,-8 20,-19 20,-33 0,-12 -4,-20 -11,-24 -7,-5 -21,-7 -41,-7l-39 0c-15,0 -26,3 -35,11 -8,7 -12,17 -12,30zm18 -182c0,15 4,26 13,34 9,8 20,12 36,12 32,0 48,-15 48,-46 0,-32 -16,-49 -48,-49 -15,0 -27,4 -35,12 -8,8 -12,20 -12,37zm289 150c-32,0 -57,-10 -75,-29 -18,-19 -28,-46 -28,-81 0,-35 9,-62 26,-83 17,-20 40,-31 69,-31 27,0 48,9 64,27 16,18 24,41 24,70l0 21 -148 0c1,25 7,44 19,58 12,13 29,20 51,20 23,0 46,-5 69,-15l0 29c-12,5 -22,9 -33,11 -10,2 -23,3 -37,3zm-9 -196c-17,0 -31,6 -41,17 -10,11 -16,27 -18,47l113 0c0,-21 -5,-36 -14,-47 -9,-11 -22,-16 -39,-16zm395 163l-2 0c-15,22 -38,33 -68,33 -28,0 -50,-10 -66,-29 -16,-19 -23,-47 -23,-82 0,-35 8,-63 24,-83 16,-20 38,-29 66,-29 29,0 52,11 67,32l3 0 -1 -15 -1 -15 0 -88 33 0 0 305 -27 0 -4 -29zm-65 5c22,0 38,-6 48,-18 10,-12 15,-32 15,-59l0 -7c0,-30 -5,-52 -15,-65 -10,-13 -26,-19 -49,-19 -19,0 -34,7 -44,22 -10,15 -15,36 -15,63 0,27 5,48 15,62 10,14 25,21 45,21zm298 23l-6 -31 -2 0c-11,13 -21,23 -32,27 -11,5 -24,7 -40,7 -21,0 -38,-5 -50,-17 -12,-11 -18,-27 -18,-47 0,-43 35,-66 104,-68l37 -1 0 -13c0,-17 -4,-29 -11,-37 -7,-8 -19,-12 -35,-12 -18,0 -38,5 -61,16l-10 -25c11,-6 22,-10 35,-14 13,-3 25,-5 38,-5 26,0 45,6 57,17 12,11 19,30 19,55l0 147 -24 0zm-74 -23c20,0 36,-6 48,-17 12,-11 17,-27 17,-47l0 -19 -33 1c-26,1 -45,5 -56,12 -11,7 -17,18 -17,33 0,12 4,21 11,27 7,6 17,9 30,9zm437 -53c0,25 -9,45 -28,59 -18,14 -43,21 -75,21 -34,0 -60,-4 -79,-13l0 -32c12,5 25,9 39,12 14,3 28,4 41,4 22,0 39,-4 50,-13 11,-8 17,-20 17,-35 0,-10 -2,-18 -6,-24 -4,-6 -11,-12 -20,-18 -9,-5 -24,-11 -43,-18 -27,-10 -46,-21 -57,-34 -11,-13 -17,-30 -17,-51 0,-22 8,-40 25,-53 17,-13 39,-20 66,-20 29,0 55,5 79,16l-10 29c-24,-10 -47,-15 -69,-15 -18,0 -32,4 -41,11 -10,8 -15,18 -15,32 0,10 2,18 5,24 4,6 10,12 19,17 9,5 22,11 40,18 30,11 51,22 62,35 11,12 17,28 17,48zm87 76l-33 0 0 -215 33 0 0 215zm-35 -273c0,-7 2,-13 5,-16 4,-3 8,-5 14,-5 5,0 10,2 14,5 4,4 6,9 6,16 0,7 -2,13 -6,16 -4,4 -8,5 -14,5 -5,0 -10,-2 -14,-5 -4,-4 -5,-9 -5,-16zm137 273l-33 0 0 -305 33 0 0 305zm116 0l-82 -215 35 0 46 128c10,30 17,49 18,58l2 0c1,-7 6,-21 14,-43 8,-22 25,-69 52,-143l35 0 -82 215 -38 0zm287 0l-6 -31 -2 0c-11,13 -21,23 -32,27 -11,5 -24,7 -40,7 -21,0 -38,-5 -50,-17 -12,-11 -18,-27 -18,-47 0,-43 35,-66 104,-68l37 -1 0 -13c0,-17 -4,-29 -11,-37 -7,-8 -19,-12 -35,-12 -18,0 -38,5 -61,16l-10 -25c11,-6 22,-10 35,-14 13,-3 25,-5 38,-5 26,0 45,6 57,17 12,11 19,30 19,55l0 147 -24 0zm-74 -23c20,0 36,-6 48,-17 12,-11 17,-27 17,-47l0 -19 -33 1c-26,1 -45,5 -56,12 -11,7 -17,18 -17,33 0,12 4,21 11,27 7,6 17,9 30,9z"/>
    </g>
   </g>
  </g>
 </g>
</svg>
